<?xml version="1.0" encoding="utf-8"?>
<!-- Generator: Adobe Illustrator 16.2.1, SVG Export Plug-In . SVG Version: 6.00 Build 0)  -->
<!DOCTYPE svg PUBLIC "-//W3C//DTD SVG 1.1//EN" "http://www.w3.org/Graphics/SVG/1.1/DTD/svg11.dtd">
<svg version="1.1" id="Layer_1" xmlns="http://www.w3.org/2000/svg" xmlns:xlink="http://www.w3.org/1999/xlink" x="0px" y="0px"
	 width="623.623px" height="198.43px" viewBox="0 0 623.623 198.43" enable-background="new 0 0 623.623 198.43"
	 xml:space="preserve">
<circle fill="#939597" cx="311.406" cy="98.755" r="90.548"/>
<path fill="#FFFFFF" d="M276.883,47.709c4.545,0,7.916,2.993,8.521,7.881c0.379,3.03,0.342,8.334,0,11.364
	c-0.453,4.167-3.521,7.88-8.521,7.88c-4.547,0-7.918-2.993-8.525-7.88c-0.379-3.068-0.379-8.334,0-11.364
	C268.85,51.459,271.881,47.709,276.883,47.709z M271.958,55.59c-0.379,3.105-0.379,8.258,0,11.364
	c0.303,2.197,1.969,4.281,4.926,4.281c2.537,0,4.508-1.554,4.924-4.281c0.416-3.106,0.416-8.259,0-11.364
	c-0.303-2.236-1.932-4.244-4.924-4.282C274.42,51.308,272.299,52.823,271.958,55.59z"/>
<path fill="#FFFFFF" d="M307.793,62.407c0.113,1.517,0.113,3.79,0,5.305c-0.305,3.978-3.047,7.198-7.025,7.198
	c-1.742,0-2.592-0.947-3.35-0.947c-0.568,0-0.834,0.227-0.834,0.947v6.439c0,0.417-0.34,0.758-0.758,0.758h-1.893
	c-0.418,0-0.758-0.34-0.758-0.758V56.347c0-0.417,0.34-0.757,0.758-0.757h1.287c0.229,0,0.379,0.112,0.531,0.265
	c0.227,0.266,0.568,0.605,0.947,0.605c1.098,0,1.266-1.249,4.068-1.249C304.747,55.211,307.489,58.431,307.793,62.407z
	 M296.206,62.407c-0.113,1.554-0.113,3.751,0,5.305c0.152,2.008,1.57,3.788,4.184,3.788c2.615,0,4.031-1.78,4.184-3.788
	c0.113-1.554,0.113-3.751,0-5.305c-0.152-2.007-1.568-3.787-4.184-3.787C297.776,58.62,296.358,60.4,296.206,62.407z"/>
<path fill="#FFFFFF" d="M323.247,71.5c1.969,0,3.447-0.984,3.902-2.386c0.152-0.492,0.529-0.644,0.871-0.644h1.932
	c0.379,0,0.721,0.228,0.645,0.757c-0.455,3.296-3.41,5.684-7.35,5.684c-4.547,0-7.463-3.221-7.766-7.198
	c-0.115-1.515-0.115-3.788,0-5.305c0.303-3.977,3.219-7.196,7.766-7.196c4.242,0,7.576,3.409,7.576,7.576V65.4
	c-0.037,0.417-0.34,0.758-0.758,0.758h-10.834c-0.227,0-0.379,0.152-0.379,0.38C318.852,69.984,320.631,71.5,323.247,71.5z
	 M319.307,63.128h7.879c0.227,0,0.379-0.151,0.379-0.379c0-2.614-1.932-4.129-4.281-4.129c-2.613,0-4.355,1.818-4.355,4.129
	C318.928,62.977,319.079,63.128,319.307,63.128z"/>
<path fill="#FFFFFF" d="M342.223,73.773c0,0.416-0.34,0.758-0.756,0.758h-1.895c-0.418,0-0.758-0.342-0.758-0.758V56.347
	c0-0.417,0.34-0.757,0.758-0.757h1.666c0.229,0,0.379,0.112,0.531,0.265c0.227,0.266,0.566,0.605,0.945,0.605
	c1.1,0,1.402-1.249,4.055-1.249c3.979,0,7.197,3.029,7.197,7.196v11.366c0,0.416-0.34,0.758-0.756,0.758h-1.895
	c-0.418,0-0.758-0.342-0.758-0.758V62.407c0-2.196-1.818-3.787-4.168-3.787s-4.168,1.401-4.168,3.599V73.773z"/>
<path fill="#FFFFFF" d="M269.153,111.653V86.65c0-0.417,0.342-0.758,0.758-0.758h7.199c4.395,0,7.426,3.562,7.955,7.956
	c0.379,3.03,0.34,7.577,0,10.607c-0.492,4.356-3.561,7.955-7.955,7.955h-7.199C269.495,112.411,269.153,112.07,269.153,111.653z
	 M277.11,108.812c2.311,0,4.09-2.084,4.357-4.356c0.377-3.03,0.377-7.577,0-10.607c-0.268-2.273-2.047-4.357-4.357-4.357h-3.979
	c-0.227,0-0.379,0.152-0.379,0.379v18.563c0,0.228,0.152,0.379,0.379,0.379C273.284,108.812,277.11,108.812,277.11,108.812z"/>
<path fill="#FFFFFF" d="M296.958,98.508c0,0.644-0.529,0.644-0.871,0.644h-1.705c-0.568,0-0.758-0.303-0.758-0.757
	c0-3.523,3.637-5.304,6.857-5.304c3.713,0,6.934,2.614,6.934,6.819v11.743c0,0.417-0.342,0.758-0.758,0.758h-1.289
	c-0.227,0-0.379-0.075-0.529-0.265c-0.229-0.303-0.379-0.796-0.758-0.796c-0.682,0-1.629,1.44-4.434,1.44
	c-4.658,0-6.895-2.842-6.895-6.062c0-3.144,2.273-5.758,6.252-5.758h4.621c0.229,0,0.379-0.151,0.379-0.379v-1.25
	c0-2.046-1.59-2.993-3.523-2.993C299.231,96.349,296.958,96.689,296.958,98.508z M299.004,104.077c-1.932,0-2.842,1.022-2.842,2.614
	c0,1.855,1.174,2.954,3.371,2.954c3.486,0,4.773-1.401,4.773-3.978v-1.212c0-0.228-0.15-0.379-0.379-0.379H299.004z"/>
<path fill="#FFFFFF" d="M323.284,97.069c-0.227,0-0.379,0.15-0.379,0.378v9.281c0,1.363,1.1,2.652,2.652,2.652
	s2.652-1.289,2.652-2.652c0-0.416,0.34-0.757,0.758-0.757h1.895c0.416,0,0.756,0.341,0.756,0.757c0,3.334-2.727,6.062-6.061,6.062
	s-6.061-2.729-6.061-6.062v-9.281c0-0.228-0.152-0.378-0.379-0.378h-3.789c-0.416,0-0.758-0.342-0.758-0.759v-1.894
	c0-0.417,0.342-0.758,0.758-0.758h3.789c0.227,0,0.379-0.151,0.379-0.378v-5.873c0-0.416,0.34-0.757,0.758-0.757h1.893
	c0.418,0,0.758,0.341,0.758,0.757v5.873c0,0.227,0.152,0.378,0.379,0.378h6.062c0.416,0,0.758,0.341,0.758,0.758v1.894
	c0,0.417-0.342,0.759-0.758,0.759H323.284z"/>
<path fill="#FFFFFF" d="M343.17,98.508c0,0.644-0.529,0.644-0.871,0.644h-1.705c-0.568,0-0.758-0.303-0.758-0.757
	c0-3.523,3.637-5.304,6.857-5.304c3.713,0,6.934,2.614,6.934,6.819v11.743c0,0.417-0.342,0.758-0.758,0.758h-1.289
	c-0.227,0-0.379-0.075-0.529-0.265c-0.229-0.303-0.379-0.796-0.758-0.796c-0.682,0-1.629,1.44-4.434,1.44
	c-4.658,0-6.895-2.842-6.895-6.062c0-3.144,2.273-5.758,6.252-5.758h4.621c0.227,0,0.379-0.151,0.379-0.379v-1.25
	c0-2.046-1.59-2.993-3.523-2.993C345.444,96.349,343.17,96.689,343.17,98.508z M345.217,104.077c-1.932,0-2.842,1.022-2.842,2.614
	c0,1.855,1.174,2.954,3.371,2.954c3.486,0,4.773-1.401,4.773-3.978v-1.212c0-0.228-0.15-0.379-0.379-0.379H345.217z"/>
<path fill="#FFFFFF" d="M302.415,149.012c0,0.417-0.342,0.758-0.758,0.758h-3.41c-0.416,0-0.758-0.341-0.758-0.758v-3.409
	c0-0.416,0.342-0.758,0.758-0.758h3.41c0.416,0,0.758,0.342,0.758,0.758V149.012z"/>
<path fill="#FFFFFF" d="M323.284,150.148c-4.545,0-7.273-3.22-7.576-7.197c-0.113-1.516-0.113-3.789,0-5.304
	c0.303-3.979,3.031-7.198,7.576-7.198c4.244,0,7.312,2.766,7.312,6.44c0,0.416-0.227,0.758-0.645,0.758h-2.045
	c-0.342,0-0.721-0.189-0.721-0.606c0-1.781-1.553-3.183-3.902-3.183c-2.613,0-4.016,1.781-4.166,3.789
	c-0.113,1.553-0.113,3.75,0,5.304c0.15,2.008,1.553,3.788,4.166,3.788c2.311,0,3.865-1.363,3.865-3.145
	c0-0.492,0.379-0.644,0.719-0.644h1.971c0.416,0,0.758,0.341,0.758,0.757C330.596,147.383,327.528,150.148,323.284,150.148z"/>
<path fill="#FFFFFF" d="M339.875,149.77c-0.418,0-0.758-0.341-0.758-0.758v-25.268c0-0.417,0.34-0.758,0.758-0.758h1.895
	c0.416,0,0.758,0.341,0.758,0.758v6.856c0,0.341,0.303,0.796,0.832,0.796c0.758,0,1.744-0.947,3.486-0.947
	c3.977,0,7.197,3.22,7.197,7.198v11.364c0,0.417-0.342,0.758-0.758,0.758h-1.895c-0.416,0-0.758-0.341-0.758-0.758v-11.364
	c0-1.97-1.703-3.789-4.053-3.789s-4.053,1.629-4.053,3.6v11.554c0,0.417-0.342,0.758-0.758,0.758H339.875z"/>
<circle fill="#939597" cx="103.987" cy="99.545" r="91.338"/>
<path fill="#FFFFFF" d="M77.079,146.727c-0.852,1.418-1.701,2.128-2.979,2.128h-2.412c-1.844,0-3.404-1.986-2.27-3.974
	l60.553-93.211c0.85-1.418,1.844-2.129,3.119-2.129h2.129c1.846,0,3.264,1.987,2.271,3.973L77.079,146.727z"/>
<path fill="#FFFFFF" d="M117.042,144.744v-39.65c0-0.684,0.559-1.242,1.244-1.242h15.115c7.211,0,12.186,5.322,13.057,12.536
	c0.623,4.975,0.561,11.741,0,16.716c-0.809,7.15-5.846,12.884-13.057,12.884h-15.115C117.6,145.987,117.042,145.427,117.042,144.744
	z M132.012,138.863c3.791,0,6.715-3.247,7.148-6.978c0.623-4.975,0.623-9.307,0-14.281c-0.434-3.73-3.357-6.629-7.148-6.629h-7.053
	c-0.373,0-0.621,0.249-0.621,0.622v26.644c0,0.372,0.248,0.622,0.621,0.622C125.208,138.863,132.012,138.863,132.012,138.863z"/>
<path fill="#FFFFFF" d="M92.834,68.639c-1.135-9.08-7.379-14.896-15.891-14.896c-9.363,0-15.039,7.235-16.033,14.896
	c-0.707,5.675-0.707,8.513,0,14.188c1.137,9.222,7.52,14.897,16.033,14.897c9.363,0,15.039-7.094,15.891-14.897
	C93.543,77.151,93.543,74.313,92.834,68.639z M84.889,82.969c-0.568,3.973-3.547,7.235-7.945,7.235
	c-5.107,0-7.379-3.973-7.945-7.235c-0.709-4.398-0.709-9.932,0-14.613c0.566-3.831,3.547-6.952,7.945-6.952
	c5.107,0,7.52,3.973,7.945,6.952C85.598,73.037,85.598,78.57,84.889,82.969z"/>
<circle fill="#939597" cx="519.615" cy="98.755" r="90.548"/>
<path fill="#FFFFFF" d="M484.97,97.045c0.038,0.152,0.304,0.19,0.38,0l3.001-10.942c0.152-0.456,0.38-0.646,0.798-0.646h3.762
	c0.418,0,0.76,0.342,0.76,0.76v25.076c0,0.418-0.342,0.76-0.76,0.76h-1.823c-0.418,0-0.761-0.342-0.761-0.76V91.46
	c0-0.228-0.304-0.304-0.38-0.076l-3.001,10.524c-0.19,0.456-0.38,0.646-0.798,0.646h-1.976c-0.418,0-0.608-0.19-0.798-0.646
	l-3.002-10.524c-0.076-0.228-0.38-0.151-0.38,0.076v19.833c0,0.418-0.342,0.76-0.76,0.76h-1.824c-0.418,0-0.76-0.342-0.76-0.76
	V86.217c0-0.418,0.342-0.76,0.76-0.76h3.762c0.418,0,0.646,0.189,0.798,0.646L484.97,97.045z"/>
<path fill="#FFFFFF" d="M505.186,105.138c-0.342,0-0.646,0.19-0.722,0.532l-1.672,5.813c-0.076,0.342-0.38,0.569-0.722,0.569h-2.09
	c-0.608,0-0.836-0.418-0.76-0.76l7.066-25.267c0.076-0.342,0.38-0.569,0.723-0.569h2.659c0.342,0,0.646,0.228,0.722,0.569
	l7.067,25.267c0.076,0.342-0.152,0.76-0.76,0.76h-2.09c-0.342,0-0.646-0.228-0.722-0.569l-1.672-5.813
	c-0.076-0.342-0.38-0.532-0.723-0.532H505.186z M510.695,101.604c0.229,0,0.38-0.114,0.305-0.418l-2.47-10.601
	c-0.038-0.151-0.076-0.228-0.152-0.228h-0.076c-0.076,0-0.113,0.076-0.151,0.228l-2.47,10.601c-0.076,0.304,0.076,0.418,0.304,0.418
	H510.695z"/>
<path fill="#FFFFFF" d="M535.508,85.837c0.114-0.152,0.267-0.38,0.836-0.38h2.09c0.722,0,1.102,0.836,0.646,1.367l-8.663,11.057
	c-0.266,0.267-0.342,0.57-0.038,0.912l9.727,11.854c0.418,0.493,0.152,1.405-0.684,1.405h-2.394c-0.57,0-0.685-0.228-0.836-0.38
	l-8.055-10.068c-0.076-0.114-0.305-0.114-0.305,0.076v9.612c0,0.418-0.342,0.76-0.76,0.76h-2.09c-0.418,0-0.76-0.342-0.76-0.76
	V86.217c0-0.418,0.342-0.76,0.76-0.76h2.09c0.418,0,0.76,0.342,0.76,0.76v9.118c0,0.19,0.229,0.19,0.305,0.076L535.508,85.837z"/>
<path fill="#FFFFFF" d="M551.925,96.285c0,0.229,0.152,0.38,0.38,0.38h9.005c0.418,0,0.76,0.342,0.76,0.76v2.09
	c0,0.418-0.342,0.76-0.76,0.76h-9.005c-0.228,0-0.38,0.152-0.38,0.38v7.409c0,0.229,0.152,0.38,0.38,0.38h9.499
	c0.418,0,0.76,0.342,0.76,0.76v2.09c0,0.418-0.342,0.76-0.76,0.76h-12.729c-0.418,0-0.76-0.342-0.76-0.76V86.217
	c0-0.418,0.342-0.76,0.76-0.76h12.652c0.418,0,0.76,0.342,0.76,0.76v2.09c0,0.418-0.342,0.76-0.76,0.76h-9.423
	c-0.228,0-0.38,0.152-0.38,0.38V96.285z"/>
</svg>
